<svg xmlns="http://www.w3.org/2000/svg"  viewBox="0 0 24 24" width="500px" height="500px" fill="#fff"><path d="M20.5,22h-17C2.671,22,2,21.329,2,20.5v-7C2,12.671,2.671,12,3.5,12S5,12.671,5,13.5V19h14v-5.5c0-0.829,0.671-1.5,1.5-1.5 s1.5,0.671,1.5,1.5v7C22,21.329,21.329,22,20.5,22z"/><path d="M19.508,6.877l-5.103-4.792c-0.605-0.567-1.554-0.538-2.12,0.066c-0.567,0.604-0.538,1.553,0.066,2.12l4.466,4.194 l-5.368-2.951c-0.729-0.4-1.639-0.134-2.037,0.592c-0.399,0.726-0.134,1.638,0.592,2.037l5.37,2.952L9.438,9.571 c-0.799-0.204-1.619,0.277-1.826,1.08c-0.206,0.802,0.277,1.62,1.08,1.826L14.627,14H8.5C7.671,14,7,14.671,7,15.5S7.671,17,8.5,17 h7c0.829,0,1.5-0.671,1.5-1.5c0-0.56-0.31-1.042-0.764-1.3c0.503-0.137,0.924-0.521,1.063-1.062 c0.138-0.538-0.038-1.078-0.408-1.441c0.519-0.011,1.018-0.287,1.285-0.774c0.272-0.495,0.229-1.073-0.052-1.52 c0.118,0.029,0.236,0.067,0.357,0.067c0.4,0,0.799-0.159,1.094-0.473C20.142,8.393,20.112,7.444,19.508,6.877z" opacity=".35"/></svg>